<svg class="img-fluid" id="outputsvg" xmlns="http://www.w3.org/2000/svg" style="transform: matrix(0.85683, 0, 0, 0.85683, 0, 0); transform-origin: 50% 50%; cursor: move; transition: transform 200ms ease-in-out 0s;" width="674" height="358" viewBox="0 0 6740 3580"><g id="l88M0SRUck0baZ6YUMsW3P" fill="rgb(255,255,255)" style="transform: none;"><g style="transform: none;"><path id="pFmoOIYH6" d="M0 2662 l0 -917 71 -43 c38 -23 75 -42 81 -42 6 0 19 -6 27 -13 63 -54 346 -53 428 0 12 8 27 12 34 8 6 -4 14 -3 18 3 3 5 53 31 111 57 112 50 169 81 185 100 6 7 56 42 112 78 57 37 111 76 120 88 10 11 52 45 93 74 41 29 86 65 100 80 14 15 43 41 65 57 32 23 129 107 189 163 20 19 186 158 259 219 40 32 90 75 112 95 22 21 65 55 95 76 30 21 71 53 90 71 19 17 67 51 105 75 39 24 99 64 135 90 36 26 115 68 175 94 61 26 112 51 115 56 10 15 168 59 252 70 114 15 273 3 359 -26 38 -13 102 -43 142 -68 39 -24 84 -51 99 -58 44 -24 207 -180 254 -247 25 -34 56 -72 68 -85 31 -30 56 -68 101 -155 22 -40 48 -82 58 -93 11 -12 49 -78 84 -148 36 -69 73 -135 83 -146 10 -11 48 -69 85 -130 37 -60 75 -118 86 -128 11 -10 40 -49 64 -87 25 -37 67 -91 93 -118 26 -28 76 -84 111 -126 35 -42 102 -108 149 -148 47 -40 110 -96 142 -124 31 -28 84 -66 117 -83 34 -18 70 -41 82 -52 26 -24 133 -83 191 -104 73 -27 195 -79 200 -86 5 -6 80 -31 146 -48 65 -17 206 -41 246 -41 20 0 48 -4 61 -9 14 -6 168 -15 344 -20 175 -6 331 -13 346 -16 23 -5 30 -2 34 15 3 11 9 20 14 20 12 0 11 97 -1 105 -7 4 -10 447 -10 1296 l0 1289 -3360 0 -3360 0 0 -918z"></path><path id="p6RbG0e1t" d="M6735 3110 c0 -261 1 -368 2 -238 2 131 2 345 0 475 -1 131 -2 24 -2 -237z"></path><path id="pTPElE6TE" d="M6734 2045 c0 -77 2 -107 3 -67 2 40 2 103 0 140 -2 37 -3 4 -3 -73z"></path><path id="pACy9c596" d="M6734 1405 c0 -132 2 -185 3 -117 2 68 2 176 0 240 -1 64 -3 9 -3 -123z"></path></g></g></svg>